<svg width="175" height="155" viewBox="0 0 175 155" fill="none" xmlns="http://www.w3.org/2000/svg">
<path d="M118.512 17.9234C119.242 19.1371 119.901 20.367 120.689 21.5628C134.219 42.1533 180.471 39.1036 174.465 71.5867C174.314 72.4013 174.122 73.2093 173.895 74.0092C171.074 83.8752 163.921 90.6133 159.498 100.004C156.618 106.121 158.086 112.975 158.662 119.397C159.157 124.91 158.866 130.911 155.221 135.245C149.145 142.472 137.314 142.45 128.41 143.113C119.219 143.798 109.998 144.876 101.136 147.292C93.1033 149.483 84.7064 155.275 76.1656 154.99C66.2922 154.659 60.2293 148.24 55.6112 140.567C49.744 130.815 48.2742 118.165 44.3349 107.967C40.0946 96.9914 31.3298 89.8981 24.3022 81.2898C16.9218 72.2482 11.9441 62.3757 12.521 51.1233C13.5493 31.0182 34.7641 20.1878 52.1166 12.5586C70.1479 4.63132 94.8724 -8.822 111.979 8.26427C114.822 11.1038 116.5 14.5836 118.512 17.9234Z" fill="white"/>
<path d="M119.462 109.185C119.316 106.965 117.32 104.94 115.151 103.93C110.695 101.854 105.355 101.39 101.68 97.8725C98.0681 94.4155 96.8776 89.0654 98.6901 84.4615C101.278 77.8896 108.632 76.0846 115.242 77.0946C116.084 77.2233 116.981 77.396 117.765 77.0702C118.773 76.6499 119.273 75.5241 119.418 74.4652C120.358 67.5805 119.28 60.0817 123.104 53.8535C127.336 46.9591 136.806 45.3153 143.897 49.0411C148.952 51.6982 151.503 56.3558 152.421 61.7271C153.03 65.2867 150.624 75.0566 154.819 77.1614C155.514 77.51 156.334 77.5182 157.115 77.4709C164.164 77.0425 170.534 76.8258 173.542 84.4599C176.084 90.9096 172.777 98.1446 166.157 100.621L156.364 104.283C154.277 105.063 152.901 107.015 152.899 109.193C152.899 115.985 159.7 113.548 163.895 113.475C168.394 113.395 171.835 117.502 173.27 121.276C176.997 131.077 169.295 137.876 160.828 141.628C150.291 146.297 138.371 147.83 126.924 146.267C117.399 144.967 102.196 141.175 98.6216 131.058C97.426 127.677 97.6969 123.868 99.1482 120.584C100.106 118.414 101.603 116.42 103.649 115.153C107.047 113.046 111.531 114.884 115.188 113.994C117.057 113.54 118.843 112.28 119.338 110.466C119.45 110.036 119.49 109.607 119.462 109.185Z" fill="#E3C7F4"/>
<path d="M136.556 94.4026C136.354 94.4026 136.166 94.2755 136.103 94.0768C136.026 93.8341 136.166 93.575 136.417 93.5001L147.043 90.3363C147.29 90.2581 147.558 90.3982 147.633 90.6426C147.71 90.8853 147.57 91.1444 147.319 91.2177L136.693 94.3814C136.648 94.3961 136.601 94.4026 136.556 94.4026Z" fill="#B198C0"/>
<path d="M136.556 128.583C136.354 128.583 136.166 128.456 136.103 128.258C136.026 128.015 136.166 127.756 136.417 127.682L147.043 124.519C147.29 124.444 147.558 124.581 147.633 124.825C147.71 125.068 147.57 125.327 147.319 125.402L136.693 128.565C136.648 128.577 136.601 128.583 136.556 128.583Z" fill="#B198C0"/>
<path d="M135.695 94.4026C135.65 94.4026 135.603 94.3961 135.556 94.3814L124.93 91.2177C124.679 91.1427 124.539 90.8853 124.616 90.6426C124.691 90.3998 124.957 90.2597 125.206 90.3363L135.832 93.5001C136.083 93.575 136.223 93.8324 136.146 94.0768C136.086 94.2739 135.897 94.4026 135.695 94.4026Z" fill="#B198C0"/>
<path d="M135.695 128.583C135.65 128.583 135.603 128.577 135.556 128.562L124.93 125.398C124.679 125.324 124.539 125.066 124.616 124.822C124.691 124.579 124.957 124.441 125.206 124.515L135.832 127.679C136.083 127.754 136.223 128.012 136.146 128.254C136.086 128.456 135.897 128.583 135.695 128.583Z" fill="#B198C0"/>
<path d="M135.695 145.696C135.435 145.696 135.222 145.489 135.222 145.235V71.8131C135.222 71.5589 135.435 71.3521 135.695 71.3521C135.956 71.3521 136.169 71.5589 136.169 71.8131V145.235C136.17 145.489 135.956 145.696 135.695 145.696Z" fill="#B198C0"/>
<path d="M20.1304 143.941L79.8591 128.332C84.7147 127.063 87.9233 122.567 87.4502 117.689L80.1166 41.9235C79.6702 37.3049 76.0335 33.5856 71.32 32.9258L11.7736 24.5896C5.27269 23.6789 -0.432315 28.8465 0.0258244 35.231L7.17714 134.94C7.63027 141.241 13.8687 145.578 20.1304 143.941Z" fill="#E3C8F4"/>
<path d="M14.9773 115.146C14.7499 115.146 14.5493 114.985 14.5108 114.76C14.469 114.509 14.6429 114.271 14.9004 114.231L76.8262 104.234C77.0803 104.194 77.3278 104.363 77.3713 104.614C77.4147 104.865 77.2392 105.103 76.9817 105.144L15.0559 115.14C15.0292 115.145 15.0024 115.146 14.9773 115.146Z" fill="#737373"/>
<path d="M14.9779 115.146C14.7321 115.146 14.5247 114.96 14.5063 114.718L10.2694 57.3986C10.251 57.1445 10.4466 56.9229 10.7075 56.905C10.9767 56.8707 11.1957 57.0776 11.2141 57.3318L15.451 114.653C15.4694 114.907 15.2738 115.128 15.013 115.146C14.9996 115.146 14.9879 115.146 14.9779 115.146Z" fill="#737373"/>
<path d="M66.4347 104.254L75.9051 102.82L73.8485 80.4003L64.3781 80.9574L66.4347 104.254Z" fill="#4CC3D6"/>
<path d="M50.1554 106.716L59.6258 105.284L57.0609 75.4332L47.5905 75.772L50.1554 106.716Z" fill="#4CC3D6"/>
<path d="M33.8764 109.179L43.3469 107.747L40.3121 70.2086L30.8417 70.3471L33.8764 109.179Z" fill="#4CC3D6"/>
<path d="M17.5974 111.642L27.0678 110.208L23.0566 57.6431L13.5862 57.3645L17.5974 111.642Z" fill="#4CC3D6"/>
<path d="M97.8522 89.196L112.143 82.8994L110.994 70.725H97.8522V89.196Z" fill="#FFDCDC"/>
<path d="M111.944 80.7962C111.605 81.21 111.294 81.5733 111.041 81.8519C108.028 85.1818 102.099 82.66 99.8285 79.2714C99.0059 78.043 98.3655 76.9303 97.8522 75.8747V70.725H110.994L111.944 80.7962Z" fill="#FFC3C2"/>
<path d="M126.628 60.74C126.098 62.0482 124.707 62.8855 123.799 64.4202C122.423 66.7466 124.792 69.1055 123.401 71.3603C122.297 73.149 119.784 73.7143 117.79 73.5286C114.703 73.2403 109.704 70.9041 108.928 67.6426C108.525 65.945 113.096 63.5844 112.357 62.0221C111.312 59.8146 108.389 59.3096 109.015 56.3495C109.72 53.0081 114.942 49.2481 118.081 51.7602C118.897 52.4119 119.621 53.2216 120.604 53.5946C123.302 54.6194 125.331 54.8751 126.498 57.9639C126.952 59.1597 126.921 60.0215 126.628 60.74Z" fill="#F759A8"/>
<path d="M116.628 50.1311C118.211 56.0905 116.403 65.6143 115.857 67.9488C115.277 70.4218 111.909 74.7521 110.433 76.3845C107.42 79.7144 101.492 77.1925 99.2199 73.8039C95.5698 68.3594 95.3942 65.1174 94.8559 59.5018C94.2472 53.1499 96.0296 46.2847 103.224 43.771C107.231 42.3716 111.578 43.7417 114.372 46.7751C115.703 48.2202 116.059 47.9921 116.628 50.1311Z" fill="#FFDCDC"/>
<path d="M69.7652 58.9952C71.7566 58.728 73.4019 59.0946 74.2663 61.0968C75.007 62.8155 74.6743 64.7395 75.094 66.5316C75.5705 68.568 77.087 70.6956 79.2306 70.694C82.4175 70.6907 85.2934 65.7333 88.2864 69.0079C89.8213 70.6859 91.4399 73.2973 94.2121 72.5561C96.6148 71.9142 97.297 68.9459 97.3789 66.5202C97.4692 63.8386 97.7251 60.1682 101.041 59.5133C101.837 59.3569 102.654 59.3585 103.462 59.2689C106.883 58.8893 108.296 56.0416 110.829 54.2431C111.871 53.5034 113.38 52.9886 114.721 53.3177C116.574 53.7723 116.751 55.6083 118.231 56.5076C121.836 58.6971 125.396 53.971 126.352 51.1249C127.332 48.2071 124.279 46.6285 121.901 45.9133C116.663 44.3363 120.691 38.263 118.065 34.7913C117.027 33.418 115.394 32.4861 113.656 32.2759C111.339 31.9941 109.01 32.8184 106.893 31.564C104.998 30.4415 103.816 28.3954 101.728 27.5401C98.2952 26.1358 96.3791 28.8873 94.7806 31.4076C92.4264 35.1171 90.2009 37.2366 85.566 34.9021C83.4157 33.8187 80.0783 32.1375 78.3963 34.7994C77.184 36.7169 77.9415 39.0173 76.1306 40.7311C73.9637 42.7822 70.0227 43.3002 67.4728 44.9066C66.3458 45.6169 64.8293 46.6627 64.8962 48.142C65.0015 50.5026 69.2351 50.8496 68.5446 53.2493C68.048 54.9713 64.2341 56.2648 66.2338 58.3387C67.2053 59.3471 68.481 59.1679 69.7652 58.9952Z" fill="#FF52A9"/>
<path d="M124.402 85.9311C126.277 89.6227 125.997 95.9323 125.857 100.165C125.464 112.062 120.585 120.003 121.175 132.03C121.545 139.57 122.217 144.8 122.217 144.8C122.217 152.953 88.746 157.422 88.2661 149.591C88.2661 149.591 88.5253 139.78 88.8045 136.426C89.2493 131.094 85.8417 127.052 85.2916 121.821C84.8635 117.738 84.275 113.814 85.1562 109.742C87.9568 96.786 96.4575 84.157 109.994 79.9001C113.472 78.8053 121.12 79.4635 124.402 85.9311Z" fill="#96E4F3"/>
<path d="M85.106 120.084C86.7997 118.383 88.6992 116.798 90.6956 115.172C93.5949 112.812 103.975 103.935 109.056 106.408C110.096 110.48 107.587 114.876 105.986 118.535C104.353 122.272 102.81 126.319 100.235 129.559C97.2968 133.257 94.0865 136.82 89.8763 139.101C89.5469 139.279 89.1005 139.529 88.5805 139.81C88.6641 138.387 88.7426 137.177 88.8045 136.424C89.2493 131.092 85.8417 127.05 85.2916 121.819C85.233 121.238 85.1695 120.659 85.106 120.084Z" fill="#6DD1E8"/>
<path d="M62.7101 89.4322C62.7101 89.4322 63.5712 84.1489 62.1734 82.4856C60.2221 80.1625 57.1439 78.3558 55.0304 76.1744C54.2346 75.3533 53.1427 74.226 52.1896 75.8453C51.5426 76.9433 53.5774 79.519 54.0105 80.5046C54.7964 82.2885 52.5692 83.481 51.9505 85.2144C50.531 89.1976 54.7311 92.2082 56.0822 92.7898C56.338 92.899 59.3928 94.9289 59.6185 94.9012C60.299 94.8213 61.2956 93.0733 61.6668 92.5373C62.242 91.7065 62.7101 90.5335 62.7101 89.4322Z" fill="#FFDCDC"/>
<path d="M112.431 83.4582C115.803 81.3941 119.503 82.0979 121.124 85.1167C124.459 91.3302 119.438 97.5876 115.693 102.304C111.866 107.123 107.423 111.427 102.514 115.199C99.25 117.706 96.2286 120.542 92.709 122.722C89.9451 124.432 84.3454 127.557 81.1736 125.278C79.7908 124.284 79.1303 122.429 79.5851 120.814C79.8811 119.765 80.5817 118.874 81.2655 118.014C86.5341 111.393 92.0853 106.38 97.3489 99.756C101.273 94.8214 107.568 87.0765 112.431 83.4582Z" fill="#FFDCDC"/>
<path d="M88.1602 112.005C83.9349 108.943 74.9109 105.078 67.156 94.4792C65.8351 92.6725 64.2751 90.8577 62.7669 89.0444C59.9328 89.121 57.811 90.8202 56.0837 92.7882C56.8479 95.455 74.2321 124.152 82.3749 125.833C84.2827 126.228 88.0381 125.587 89.5998 123.284C92.0694 119.641 91.4123 114.364 88.1602 112.005Z" fill="#FFDCDC"/>
<path d="M113.219 105.241C111.44 103.632 109.421 102.319 107.366 101.056C104.871 99.5231 102.334 98.1122 99.7695 96.747C103.573 92.0763 108.478 86.4021 112.432 83.4582C115.804 81.3941 119.505 82.0979 121.125 85.1167C124.461 91.3302 119.439 97.5876 115.694 102.304C114.896 103.308 114.067 104.283 113.219 105.241Z" fill="#6DD1E8"/>
</svg>
