<svg width="175" height="155" viewBox="0 0 175 155" fill="none" xmlns="http://www.w3.org/2000/svg">
<path d="M143.32 24.7342C117.557 1.02214 77.5703 -6.10961 45.3804 5.37513C36.9373 8.38658 28.7468 12.6835 22.4293 19.2311C13.5571 28.4271 10.6966 40.7006 12.7096 53.3339C14.4777 64.4292 21.6457 72.4289 25.7006 82.5342C33.0786 100.925 17.5664 126.249 38.9883 139.026C50.6708 145.991 63.8718 144.093 76.6072 146.091C89.0824 148.05 102.318 157.726 114.822 150.614C119.2 148.124 121.653 143.593 123.751 138.857C125.101 135.81 126.303 132.678 127.775 129.952C137.373 112.182 153.701 98.5781 160.262 79.0491C166.666 59.9871 157.87 38.1281 143.32 24.7342Z" fill="white"/>
<path d="M49.9923 92.9026C50.1247 90.6535 51.9414 88.6025 53.9148 87.5794C57.9698 85.4771 62.8296 85.0069 66.174 81.4443C69.4605 77.9428 70.5439 72.5238 68.8945 67.8606C66.5392 61.2041 59.8474 59.3758 53.8327 60.3988C53.0658 60.5292 52.2503 60.7057 51.5367 60.3741C50.6192 59.9483 50.1642 58.8081 50.0318 57.7355C49.1767 50.7622 50.1581 43.1667 46.6784 36.8584C42.8273 29.8751 34.2092 28.2102 27.7563 31.984C23.1567 34.6753 20.8348 39.3929 19.9995 44.8333C19.4456 48.4388 21.6351 58.3345 17.8176 60.4665C17.1846 60.8196 16.439 60.8295 15.7285 60.78C9.31362 60.346 3.51652 60.1265 0.779251 67.8589C-1.53351 74.3917 1.47613 81.7198 7.49995 84.228L16.4117 87.9375C18.3106 88.7279 19.5628 90.7047 19.5643 92.9109C19.5643 99.7902 13.3762 97.3216 9.55861 97.2474C5.46411 97.1665 2.33277 101.326 1.02728 105.15C-2.36426 115.077 4.644 121.963 12.3491 125.763C21.9379 130.492 32.7851 132.045 43.2016 130.462C51.8699 129.146 65.7023 125.304 68.9569 115.057C70.0448 111.633 69.7983 107.775 68.4791 104.448C67.6073 102.25 66.2455 100.231 64.3831 98.947C61.2913 96.8134 57.2105 98.6747 53.8829 97.7737C52.1818 97.3133 50.5583 96.0378 50.1064 94.2013C50.003 93.764 49.968 93.3284 49.9923 92.9026Z" fill="#E3C7F4"/>
<path d="M34.4373 77.9291C34.3962 77.9291 34.3536 77.9225 34.3125 77.9077L24.6431 74.7032C24.4164 74.6289 24.287 74.3665 24.357 74.1206C24.427 73.8731 24.6659 73.7329 24.8941 73.8104L34.5636 77.015C34.7903 77.0892 34.9196 77.3516 34.8496 77.5974C34.7934 77.7988 34.6229 77.9291 34.4373 77.9291Z" fill="#A790B4"/>
<path d="M34.4373 112.55C34.3962 112.55 34.3536 112.543 34.3125 112.529L24.6431 109.326C24.4164 109.25 24.287 108.989 24.357 108.743C24.427 108.497 24.6659 108.357 24.8941 108.433L34.5636 111.636C34.7903 111.712 34.9196 111.972 34.8496 112.218C34.7934 112.421 34.6229 112.55 34.4373 112.55Z" fill="#A790B4"/>
<path d="M35.2229 77.929C35.0388 77.929 34.8683 77.7986 34.8105 77.5973C34.7405 77.3514 34.8699 77.0891 35.0966 77.0148L44.766 73.8103C44.9943 73.7344 45.2347 73.873 45.3032 74.1205C45.3732 74.3664 45.2438 74.6288 45.0171 74.703L35.3461 77.9075C35.3066 77.9224 35.264 77.929 35.2229 77.929Z" fill="#A790B4"/>
<path d="M35.2229 112.55C35.0388 112.55 34.8683 112.421 34.8105 112.22C34.7405 111.974 34.8699 111.712 35.0966 111.637L44.766 108.434C44.9943 108.359 45.2347 108.497 45.3032 108.745C45.3732 108.991 45.2438 109.253 45.0171 109.327L35.3461 112.53C35.3066 112.543 35.264 112.55 35.2229 112.55Z" fill="#A790B4"/>
<path d="M35.2227 130.008C34.9854 130.008 34.7921 129.799 34.7921 129.541V55.0488C34.7921 54.7913 34.9854 54.5818 35.2227 54.5818C35.4601 54.5818 35.6533 54.7913 35.6533 55.0488V129.541C35.6533 129.799 35.4601 130.008 35.2227 130.008Z" fill="#A790B4"/>
<path d="M166.863 121.912L104.081 119.73C99.8264 119.582 96.4486 115.8 96.4486 111.184V46.6998C96.4486 42.1306 99.761 38.3684 103.97 38.1588L166.752 35.0186C171.245 34.7942 175 38.6836 175 43.5596V113.364C175 118.194 171.315 122.067 166.863 121.912Z" fill="#E3C7F4"/>
<path d="M168.287 94.286H168.284L103.593 93.7961C103.356 93.7945 103.164 93.5833 103.166 93.326C103.167 93.0704 103.361 92.8625 103.596 92.8625H103.6L168.29 93.3524C168.527 93.3541 168.719 93.5652 168.717 93.8225C168.716 94.0781 168.523 94.286 168.287 94.286Z" fill="#737373"/>
<path d="M103.596 93.7957C103.359 93.7957 103.166 93.5861 103.166 93.3287V57.5181C103.166 57.2607 103.359 57.0511 103.596 57.0511C103.834 57.0511 104.027 57.2607 104.027 57.5181V93.3287C104.027 93.5861 103.834 93.7957 103.596 93.7957Z" fill="#737373"/>
<path d="M164.472 68.43L153.998 74.6196L143.524 70.1494L133.049 79.3141L122.575 63.8691L112.341 75.9562L106.477 80.2894V90.1273L168.302 90.5943V69.8178L164.472 68.43Z" fill="#59CEE4"/>
<path d="M95.1643 91.1427C101.55 99.8783 106.813 130.996 105.068 138.265C104.351 141.253 104.253 145.279 102.334 147.598C100.073 145.953 97.8468 142.278 96.8 139.686C94.4553 133.875 92.0406 127.097 91.0988 120.855C90.1219 114.37 88.0617 105.555 90.8934 99.2628C91.8702 97.0963 92.3449 90.2698 95.1643 91.1427Z" fill="#FFDCDC"/>
<path d="M109.293 142.087C109.495 141.795 109.69 141.498 109.879 141.196C113.614 135.223 115.329 128.286 118.142 121.845C119.612 118.479 120.627 117.494 120.627 117.494C118.656 115.321 120.826 109.694 117.762 111.93C113.786 114.829 111.446 121.52 109.62 125.035C107.465 129.185 104.164 132.122 101.811 137.579C100.687 140.188 99.5488 145.117 101.877 147.311C103.038 148.405 105.02 146.674 105.9 145.912C107.178 144.807 108.311 143.508 109.293 142.087Z" fill="#FFDCDC"/>
<path d="M115.304 115.479C115.783 112.099 123.062 107.892 126.799 108.02C127.377 108.04 127.709 108.731 127.386 109.253C127.03 109.827 126.356 110.555 125.767 111.185C125.434 111.542 125.643 112.157 126.11 112.197C129.226 112.456 135.163 112.589 135.902 115.091C136.397 116.767 132.922 117.728 131.936 118.086C127.236 119.792 122.061 119.693 117.546 117.388C116.851 117.031 115.473 116.429 115.304 115.479Z" fill="#FFDCDC"/>
<path d="M103.227 115.582C101.332 105.698 98.3911 95.56 95.1624 91.1427C92.3445 90.2698 91.8682 97.0963 90.8914 99.2645C88.7749 103.971 89.8658 113.003 90.721 118.501C95.1974 116.376 99.6068 115.752 103.227 115.582Z" fill="#6DD1E8"/>
<path d="M62.0798 83.3458C51.8854 86.7681 48.121 92.3801 47.415 94.0154C48.5075 101.393 49.3976 108.393 51.8716 115.323C54.4674 122.592 54.65 129.664 55.2419 137.339C55.4458 139.989 54.6196 141.014 54.4294 143.974C54.2955 146.055 54.437 151.838 56.1989 152.675C65.3556 157.023 89.2775 154.67 93.2502 150.55C93.2152 144.545 92.7923 137.854 93.5454 129.631C93.9973 124.699 97.1241 120.32 97.6795 115.282C98.1785 110.746 94.8844 103.279 95.1643 91.1425C93.06 89.2746 88.5715 86.7202 82.4457 84.2764C77.2816 82.2154 69.4851 80.8607 62.0798 83.3458Z" fill="#96E4F3"/>
<path d="M64.3448 135.241C62.7472 127.824 57.7611 110.928 55.5061 103.78C53.9116 98.7242 52.6654 103.902 52.2774 98.4602C52.2211 98.1269 51.6931 97.6137 51.8255 96.825C50.7254 96.9471 49.4275 97.7787 48.1388 98.9173C48.9863 104.523 49.9509 109.945 51.8711 115.323C54.4669 122.591 54.6495 129.664 55.2414 137.338C55.4453 139.988 54.6191 141.013 54.4289 143.973C54.295 146.054 54.4365 151.838 56.1984 152.674C58.7942 153.907 62.5768 154.6 66.755 154.869C66.5998 148.285 65.734 141.69 64.3448 135.241Z" fill="#6DD1E8"/>
<path d="M78.809 70.823C78.6583 70.4187 78.9611 81.8639 78.5959 84.9611C78.0573 89.5336 72.8612 91.2332 69.4803 90.5088C67.0276 89.984 64.7468 87.3059 64.3025 84.7136C64.3025 84.7136 63.916 78.8986 63.7973 76.2337C63.8156 76.1627 63.7486 76.4961 63.9114 76.4928C63.7821 76.3327 63.7867 76.4928 63.7973 76.2337C67.5008 76.1182 69.8896 72.9252 73.2553 71.8147C74.2078 71.4996 75.212 71.5639 76.1965 71.2652C77.0105 71.0177 77.8123 70.3115 78.6598 70.4187C78.6568 70.7487 78.8713 70.9682 78.809 70.823Z" fill="#FFDCDC"/>
<path d="M47.4161 94.0158C43.0751 101.499 41.476 119.947 45.9798 139.707C46.663 142.706 48.5208 149.167 50.7909 150.004C52.7948 148.006 53.1113 144.768 53.7823 142.034C55.2856 135.905 56.7219 128.807 56.7767 122.484C56.833 115.909 56.7767 90.4483 47.4161 94.0158Z" fill="#FFDCDC"/>
<path d="M46.2246 140.637C43.9682 134.936 57.9954 131.832 61.4919 129.829C68.844 125.62 73.357 121.73 75.4111 120.039C77.0604 118.679 76.9387 117.737 77.9657 119.897C79.0476 122.174 80.5341 121.905 79.3777 123.674C79.148 124.027 77.3039 126.227 76.9904 126.601C72.0895 132.451 53.4916 151.548 50.7908 150C50.7908 150 46.4879 142.53 46.2246 140.637Z" fill="#FFDCDC"/>
<path d="M76.2465 118.341C76.1856 113.426 77.3816 109.772 79.0127 105.159C80.8918 99.8436 80.9222 111.554 80.799 112.706C80.3973 116.465 81.7819 118.234 79.7537 122.943C78.191 126.572 76.6025 122.962 76.3834 120.792C76.3013 119.968 76.2571 119.151 76.2465 118.341Z" fill="#FFDCDC"/>
<path d="M47.416 94.0159C44.6392 98.8012 42.9883 108.073 43.3337 119.301C47.8345 119.317 52.3078 119.396 56.7782 119.749C56.7127 110.746 55.7648 90.8345 47.416 94.0159Z" fill="#6DD1E8"/>
<path d="M78.6581 70.4187C77.8106 70.3115 77.0088 71.0177 76.1947 71.2652C75.2118 71.5639 74.2076 71.5012 73.2536 71.8147C69.8894 72.9252 67.5006 76.1149 63.7987 76.232C63.7987 76.2221 63.7987 76.2188 63.7956 76.232C63.7895 76.3706 63.7865 76.3888 63.8032 76.4004C63.9295 79.1329 64.3008 84.7103 64.3008 84.7103C64.4027 85.3043 64.6051 85.9033 64.8805 86.4792C69.4375 87.7531 75.9665 80.8556 78.7631 72.8774C78.7586 71.7636 78.7631 71.0012 78.789 70.8478C78.7449 70.795 78.6581 70.6299 78.6581 70.4187ZM63.7987 76.2716C63.8002 76.298 63.8017 76.3277 63.8032 76.3542C63.7987 76.3244 63.7971 76.2947 63.7987 76.2716ZM63.8139 76.4069C63.8321 76.4152 63.861 76.4301 63.9097 76.4911C63.8549 76.4928 63.8276 76.4548 63.8139 76.4069Z" fill="#FFC3C2"/>
<path d="M78.7905 70.8445C78.8146 70.872 78.8288 70.8676 78.8075 70.8213C78.8005 70.8053 78.7962 70.8184 78.7905 70.8445Z" fill="#6E7FF0"/>
<path d="M58.5994 52.1426C58.5613 52.2285 58.5263 52.3176 58.4959 52.4083C57.2345 56.0831 58.3011 61.7298 58.7348 65.5547C59.3069 70.6123 60.903 78.8826 64.8256 82.305C69.6702 86.5292 78.5484 77.2028 81.0316 67.2808C81.7939 64.233 79.8859 59.8025 78.6793 57.0765C76.2144 51.5057 71.3317 48.3639 65.1846 48.7071C63.0971 48.8226 59.6051 49.8737 58.5994 52.1426Z" fill="#FFDCDC"/>
<path d="M58.1553 62.9635C58.8446 61.1682 59.2523 59.2062 60.3418 57.6666C61.4647 56.0792 63.6983 55.1304 65.1681 56.3383C66.9255 57.7821 66.4554 61.2127 68.3375 62.4569C70.5757 63.9387 73.9886 60.8976 75.9027 62.8414C77.7742 64.7423 74.8528 69.3411 76.029 71.813C77.581 75.072 79.5179 73.0225 80.5358 74.6446C81.6526 76.4267 80.8964 78.9893 81.852 80.8787C82.6036 82.3638 84.4401 83.075 85.8886 82.438C87.7221 81.6328 88.4616 79.2748 88.813 77.1643C89.166 75.0538 89.4384 72.7156 90.9082 71.28C92.3856 69.8362 94.5691 69.7949 96.5304 69.4352C98.4916 69.0755 100.713 67.9056 100.915 65.7604C101.223 62.4915 96.7205 60.7952 96.4375 57.5247C96.1439 54.1486 100.54 51.6124 99.7393 48.3336C99.1505 45.9245 96.2656 45.3403 93.9696 45.4261C91.6736 45.5119 88.9104 45.5664 87.643 43.4856C86.1275 40.9956 88.0721 37.6046 87.4041 34.7103C86.9659 32.8111 85.3591 31.3639 83.585 31.0026C81.8109 30.6395 79.9363 31.2715 78.503 32.4613C76.7456 33.9199 75.4325 36.2499 73.2643 36.7251C71.5495 37.0997 69.8195 36.1558 68.4379 34.9925C67.0564 33.8292 65.8346 32.4051 64.2704 31.557C62.7063 30.7088 60.608 30.5966 59.3756 31.9431C57.7065 33.7698 58.2223 37.4825 56.0571 38.532C54.8368 39.1227 53.4415 38.461 52.1087 38.362C50.2615 38.2251 48.1526 39.7762 48.4235 41.7612C48.7126 43.8816 51.3692 44.9328 51.5624 47.0664C51.7222 48.8237 50.1093 50.1421 48.6 50.8088C46.4272 51.7675 41.295 55.4769 46.4333 56.9769C47.8133 57.3795 49.5236 57.5478 50.152 58.9389C50.6039 59.9388 50.2539 61.1203 50.2021 62.2325C50.0896 64.668 51.9763 67.224 54.213 66.9897C56.048 66.7967 57.3656 64.9651 58.0929 63.1269C58.1142 63.0707 58.1355 63.0179 58.1553 62.9635Z" fill="#FF52A9"/>
</svg>
