<svg width="175" height="155" viewBox="0 0 175 155" fill="none" xmlns="http://www.w3.org/2000/svg">
<path d="M67.6848 7.45079C35.0098 24.6948 11.5746 61.7933 8.54246 97.6581C7.74694 107.064 8.23924 116.669 11.5909 125.204C16.2988 137.19 26.3749 144.297 38.8391 146.703C49.7857 148.817 60.1649 144.507 71.1669 144.014C91.1869 143.117 110.848 163.07 136.148 142.683C147.486 133.547 143.872 127.667 151.086 115.756C158.152 104.09 172.635 94.3577 171.376 79.5014C170.936 74.3019 167.805 70.2948 164.337 66.5688C162.106 64.1718 159.734 61.8901 157.849 59.484C145.564 43.7934 139.953 22.894 124.768 9.59725C109.948 -3.38302 86.1415 -2.28748 67.6848 7.45079Z" fill="white"/>
<path d="M48.8761 115.979C49.0049 114.068 50.7817 112.325 52.7119 111.456C56.6764 109.67 61.4283 109.269 64.6985 106.242C67.9115 103.268 68.9711 98.6613 67.3589 94.6987C65.0555 89.0429 58.5136 87.4895 52.632 88.3592C51.8821 88.4698 51.085 88.6188 50.3873 88.3377C49.4907 87.9751 49.0456 87.0071 48.9168 86.0944C48.0806 80.1697 49.0391 73.7149 45.6386 68.3541C41.8745 62.4202 33.4466 61.005 27.1379 64.2132C22.6402 66.5011 20.371 70.5082 19.5527 75.1331C19.0098 78.1968 21.1519 86.6061 17.4204 88.4176C16.801 88.7187 16.0723 88.7249 15.3778 88.6849C9.10495 88.3162 3.43691 88.1287 0.761807 94.7003C-1.49923 100.252 1.44318 106.479 7.33296 108.61L16.0462 111.763C17.9029 112.434 19.1272 114.115 19.1289 115.988C19.1289 121.835 13.0793 119.737 9.34624 119.673C5.34255 119.605 2.2811 123.139 1.00468 126.387C-2.31107 134.824 4.54216 140.675 12.0752 143.905C21.4519 147.924 32.056 149.243 42.2413 147.898C50.7165 146.778 64.242 143.515 67.4241 134.807C68.487 131.897 68.2473 128.62 66.9562 125.793C66.1037 123.926 64.7718 122.208 62.9526 121.117C59.9302 119.304 55.938 120.887 52.6858 120.12C51.023 119.728 49.4336 118.645 48.9934 117.084C48.8859 116.71 48.85 116.342 48.8761 115.979Z" fill="#E3C7F4"/>
<path d="M33.6668 103.252C33.6261 103.252 33.5837 103.248 33.5445 103.235L24.0896 100.513C23.8663 100.448 23.7408 100.227 23.8092 100.017C23.8777 99.806 24.1206 99.6877 24.3341 99.7538L33.7891 102.476C34.0124 102.541 34.1379 102.762 34.0694 102.973C34.014 103.143 33.8478 103.252 33.6668 103.252Z" fill="#998CA0"/>
<path d="M33.6668 132.674C33.6261 132.674 33.5837 132.668 33.5445 132.657L24.0896 129.935C23.8663 129.87 23.7408 129.649 23.8092 129.438C23.8777 129.23 24.1206 129.108 24.3341 129.176L33.7891 131.898C34.0124 131.963 34.1379 132.184 34.0694 132.395C34.014 132.564 33.8478 132.674 33.6668 132.674Z" fill="#998CA0"/>
<path d="M34.4326 103.252C34.2533 103.252 34.0853 103.141 34.0299 102.971C33.9615 102.76 34.087 102.539 34.3103 102.475L43.7652 99.752C43.9853 99.6875 44.2217 99.8073 44.2902 100.015C44.3587 100.225 44.2331 100.446 44.0098 100.511L34.5548 103.234C34.5157 103.247 34.475 103.252 34.4326 103.252Z" fill="#998CA0"/>
<path d="M34.4326 132.674C34.2533 132.674 34.0853 132.564 34.0299 132.393C33.9615 132.183 34.087 131.962 34.3103 131.897L43.7652 129.174C43.9853 129.11 44.2217 129.23 44.2902 129.437C44.3587 129.648 44.2331 129.869 44.0098 129.933L34.5548 132.656C34.5157 132.668 34.4733 132.674 34.4326 132.674Z" fill="#998CA0"/>
<path d="M34.4323 148.023C34.1992 148.023 34.0117 147.845 34.0117 147.626V83.8113C34.0117 83.5916 34.1992 83.4149 34.4323 83.4149C34.6637 83.4149 34.8528 83.5932 34.8528 83.8113V147.626C34.8528 147.845 34.6654 148.023 34.4323 148.023Z" fill="#998CA0"/>
<path d="M160.055 144.477H93.3636C88.103 144.477 83.9607 140.244 84.3878 135.302L92.2077 44.5249C92.5876 40.1182 96.4935 36.7241 101.183 36.7241H165.994C171.186 36.7241 175.302 40.8512 174.983 45.7341L169.044 136.511C168.751 140.987 164.814 144.477 160.055 144.477Z" fill="#E3C7F4"/>
<path d="M127.773 117.018C127.895 117.018 128.017 117.015 128.14 117.013L128.873 107.272C128.751 107.275 128.629 107.276 128.506 107.276C123.67 107.278 119.257 105.536 116.088 102.369C112.924 99.2022 111.38 94.9922 111.737 90.5118C112.094 86.0314 114.303 81.8199 117.951 78.6501C121.593 75.4804 126.239 73.7349 131.036 73.7318C131.157 73.7318 131.278 73.7334 131.398 73.7364L132.132 63.9951C132.011 63.9936 131.891 63.9905 131.77 63.9905C116.129 63.9966 102.469 75.8722 101.263 90.5149C100.055 105.161 111.924 117.026 127.773 117.018Z" fill="#59CEE4"/>
<path d="M144.133 78.6407C147.303 81.8074 148.876 86.0173 148.56 90.4977L159.034 90.4931C160.032 75.8504 148.161 63.9856 132.519 63.9933C132.399 63.9933 132.278 63.9964 132.158 63.9979L131.424 73.7392C131.545 73.7377 131.665 73.7347 131.787 73.7347C136.585 73.7316 140.967 75.4739 144.133 78.6407Z" fill="#4AA9BB"/>
<path d="M142.193 102.547C138.501 105.717 133.765 107.463 128.863 107.466L128.13 117.207C144.19 117.201 158.017 105.325 159.015 90.6826C159.023 90.5689 159.026 90.4567 159.033 90.343L148.421 90.3476C148.416 90.4598 148.409 90.5735 148.401 90.6872C148.085 95.1645 145.881 99.3776 142.193 102.547Z" fill="#AADFE9"/>
<path d="M85.941 108.584C88.9438 108.777 104.22 109.099 110.292 107.04C113.026 106.113 119.578 101.78 123.195 102C126.273 102.186 126.638 108.573 124.894 109.853C120.253 113.259 116.686 112.089 110.909 113.604C103.568 115.53 96.6692 118.622 87.9608 120.426C83.4045 121.371 73.6545 121.575 74.2446 113.376C74.4272 110.842 79.0715 108.14 85.941 108.584Z" fill="#FFDCDC"/>
<path d="M123.041 101.905C124.275 101.756 129.538 102.065 128.554 104.02C128.07 104.982 123.268 105.004 122.507 104.259C121.746 103.512 122.257 101.998 123.041 101.905Z" fill="#FFDCDC"/>
<path d="M45.6732 148.1C45.8868 149.172 52.7188 156.266 78.5406 154.802C81.1961 154.651 85.8861 133.16 87.6402 126.412C90.0691 117.066 92.9023 115.801 87.663 106.796C84.2918 101.002 76.7735 93.9152 70.9343 88.3931C68.5314 86.1206 60.5599 83.1229 56.2041 82.6174C49.4226 81.8323 47.2447 92.8612 46.3921 98.8136C45.1418 107.553 47.3833 118.07 48.0907 127.269C48.3923 131.198 48.9726 135.576 48.3613 139.647C47.9342 142.501 45.044 144.948 45.6732 148.1Z" fill="#96E4F3"/>
<path d="M74.3587 76.9249C74.2609 78.9746 73.6871 77.9452 72.9568 80.2776C72.5003 81.7326 71.832 86.4527 71.2777 88.4962C69.3655 89.5026 66.2487 89.2184 64.1409 88.7129C60.0964 87.7434 56.4775 85.0591 53.7698 82.0614C54.8701 78.7487 53.7421 75.1764 54.8734 71.8668C56.0031 68.5572 63.6844 65.8284 67.1778 67.0376C71.1228 68.402 71.664 74.3098 74.3587 76.9249Z" fill="#FFDCDC"/>
<path d="M67.1255 66.9129C65.0731 65.9419 61.1656 67.8194 59.0561 68.3956C58.9649 69.528 58.7692 70.1995 58.9518 71.3657C59.8794 77.3426 63.2082 82.3424 69.01 85.1065C70.1022 85.6274 70.8846 85.443 71.9801 85.1372C72.1578 84.0448 72.73 80.8351 72.9664 80.1851C73.6478 78.3137 74.2868 78.6932 74.3651 76.9677C71.5677 73.9623 71.2694 68.8735 67.1255 66.9129Z" fill="#FFC3C2"/>
<path d="M77.2796 54.999C79.7672 59.3134 80.0883 66.3859 80.0916 70.8955C80.0949 74.9887 79.7101 85.8701 73.9002 84.0156C68.982 82.4468 64.3507 75.3805 63.4655 70.2993C62.7597 66.2476 65.8977 62.328 68.0887 58.8217C69.4303 56.6753 71.5332 53.0952 74.7137 53.2043C75.8792 53.2458 76.6519 53.9127 77.2796 54.999Z" fill="#FFDCDC"/>
<path d="M30.7938 81.7139C32.9733 80.8458 34.809 80.6414 36.6184 82.3746C38.172 83.8619 38.5664 86.1006 39.9016 87.7615C41.4176 89.6514 43.7357 91.3584 46.3651 90.2445C50.2743 88.5897 50.527 83.8588 55.4729 86.0529C58.0078 87.1776 60.4074 90.4642 63.4917 88.8785C66.1619 87.5049 65.0615 83.593 64.1568 81.0071C63.1542 78.1492 61.6039 74.099 64.8887 71.8465C65.6777 71.3057 66.6395 71.1858 67.4399 70.7525C70.8323 68.9103 71.4942 65.6591 73.5775 62.7275C74.435 61.5213 75.9005 60.5456 77.4557 60.4212C79.6075 60.2491 80.6068 62.3249 82.5809 62.5216C87.3915 63.001 89.5237 57.929 89.4096 54.1523C89.2955 50.3756 85.6652 50.3987 82.6983 49.9976C76.1564 49.1157 78.4337 43.2217 74.3323 39.6002C72.7086 38.1667 70.5845 38.1037 68.5729 38.3772C65.8896 38.7428 63.5895 40.3162 60.7872 39.8076C58.2784 39.3528 56.1755 37.4322 53.577 37.4107C49.3027 37.3754 48.3262 40.3285 47.2944 43.7672C45.775 48.8284 44.8051 51.0855 38.5811 50.5923C35.6941 50.3633 31.9627 49.6842 30.8607 53.0568C30.0668 55.486 31.8861 57.6617 30.5184 60.14C28.8817 63.107 25.173 65.0583 22.8778 67.6811C21.8638 68.8412 20.62 70.4499 21.3193 71.9464C22.436 74.3341 26.7918 73.2647 27.0966 76.1303C27.3151 78.1876 23.8363 80.6045 26.6695 82.2286C28.0454 83.0214 29.3854 82.2747 30.7938 81.7139Z" fill="#FF52A9"/>
<path d="M83.2204 143.828C84.2735 140.08 85.294 135.963 86.1433 132.485C85.4439 132.372 84.7658 132.289 84.2001 132.19C80.3318 131.513 76.4699 130.637 72.6439 129.769C65.8559 128.228 63.5997 125.948 61.5653 119.826C59.6091 113.945 58.7793 107.05 56.1483 101.43C55.6347 100.334 53.465 94.6586 52.1364 96.2474C49.608 106.783 51.9343 135.482 53.2172 140.61C55.3886 149.295 65.2266 148.127 73.1085 146.446C76.4911 145.721 79.9177 144.936 83.2204 143.828Z" fill="#6DD1E8"/>
<path d="M49.7388 94.6851C49.1748 95.7437 49.5025 96.5749 49.6818 97.6904C49.9067 99.0871 50.241 100.473 50.567 101.968C51.224 104.975 51.938 107.96 52.6047 111.07C53.6839 116.105 54.7907 124.605 56.297 129.528C60.1312 142.054 65.3836 134.165 65.8628 132.993C67.4294 129.165 67.5012 125.536 67.1914 121.806C66.7219 116.158 64.9923 110.866 64.0582 105.457C63.3849 101.553 62.1917 96.575 59.4774 94.2195C56.134 91.3186 53.4915 92.1821 50.6615 93.6095C49.7079 94.092 49.9801 94.2333 49.7388 94.6851Z" fill="#FFDCDC"/>
<path d="M70.991 125.191C74.0296 125.933 88.3473 128.322 94.4523 128.108C97.2007 128.013 105.221 126.618 108.019 127.372C110.399 128.016 118.215 135.596 115.93 136.7C109.851 139.638 102.771 135.763 95.7694 135.846C86.8736 135.951 78.087 136.593 68.1007 137.364C62.876 137.768 54.8327 136.823 58.7826 127.637C60.0053 124.802 64.0383 123.494 70.991 125.191Z" fill="#FFDCDC"/>
<path d="M65.4306 111.766C64.997 109.748 64.3563 107.467 64.0401 105.44C63.45 101.643 62.1605 96.5344 59.4707 94.2128C56.1566 91.3534 53.475 92.1631 50.6613 93.6105C49.7126 94.0975 49.9815 94.2328 49.7386 94.6845C49.173 95.7416 49.5072 96.5821 49.6816 97.6883C49.9 99.0742 50.2554 100.494 50.5652 101.964C51.1895 104.921 51.9981 108.058 52.5882 111.033C52.7887 112.044 52.9925 113.434 53.2501 114.405C54.9568 114.126 57.0597 113.142 58.6556 112.8C61.0585 112.28 63.0832 112.041 65.4306 111.766Z" fill="#96E4F3"/>
</svg>
