<svg width="190" height="79" viewBox="0 0 190 79" fill="none" xmlns="http://www.w3.org/2000/svg">
<path d="M189.999 0H0V56.4621H189.999V0Z" fill="#2E5B59"/>
<path d="M190 56.4621H61.1033V78H190V56.4621Z" fill="#81DEDE"/>
<path d="M61.1024 38.7091H0V78H61.1024V38.7091Z" fill="#2E5B59"/>
<path d="M77.0859 61.625H79.0703L81.9922 69.9766L84.9141 61.625H86.8984L82.7891 73H81.1953L77.0859 61.625ZM76.0156 61.625H77.9922L78.3516 69.7656V73H76.0156V61.625ZM85.9922 61.625H87.9766V73H85.6328V69.7656L85.9922 61.625ZM89.5312 68.8594V68.6953C89.5312 68.0755 89.6198 67.5052 89.7969 66.9844C89.974 66.4583 90.2318 66.0026 90.5703 65.6172C90.9089 65.2318 91.3255 64.9323 91.8203 64.7188C92.3151 64.5 92.8828 64.3906 93.5234 64.3906C94.1641 64.3906 94.7344 64.5 95.2344 64.7188C95.7344 64.9323 96.1536 65.2318 96.4922 65.6172C96.8359 66.0026 97.0964 66.4583 97.2734 66.9844C97.4505 67.5052 97.5391 68.0755 97.5391 68.6953V68.8594C97.5391 69.474 97.4505 70.0443 97.2734 70.5703C97.0964 71.0911 96.8359 71.5469 96.4922 71.9375C96.1536 72.3229 95.737 72.6224 95.2422 72.8359C94.7474 73.0495 94.1797 73.1562 93.5391 73.1562C92.8984 73.1562 92.3281 73.0495 91.8281 72.8359C91.3333 72.6224 90.9141 72.3229 90.5703 71.9375C90.2318 71.5469 89.974 71.0911 89.7969 70.5703C89.6198 70.0443 89.5312 69.474 89.5312 68.8594ZM91.7812 68.6953V68.8594C91.7812 69.2135 91.8125 69.5443 91.875 69.8516C91.9375 70.1589 92.0365 70.4297 92.1719 70.6641C92.3125 70.8932 92.4948 71.0729 92.7188 71.2031C92.9427 71.3333 93.2161 71.3984 93.5391 71.3984C93.8516 71.3984 94.1198 71.3333 94.3438 71.2031C94.5677 71.0729 94.7474 70.8932 94.8828 70.6641C95.0182 70.4297 95.1172 70.1589 95.1797 69.8516C95.2474 69.5443 95.2812 69.2135 95.2812 68.8594V68.6953C95.2812 68.3516 95.2474 68.0286 95.1797 67.7266C95.1172 67.4193 95.0156 67.1484 94.875 66.9141C94.7396 66.6745 94.5599 66.487 94.3359 66.3516C94.112 66.2161 93.8411 66.1484 93.5234 66.1484C93.2057 66.1484 92.9349 66.2161 92.7109 66.3516C92.4922 66.487 92.3125 66.6745 92.1719 66.9141C92.0365 67.1484 91.9375 67.4193 91.875 67.7266C91.8125 68.0286 91.7812 68.3516 91.7812 68.6953ZM101.672 71.3594L103.547 64.5469H105.898L103.047 73H101.625L101.672 71.3594ZM100.383 64.5469L102.266 71.3672L102.305 73H100.875L98.0234 64.5469H100.383ZM111.344 71.0938V67.3281C111.344 67.0573 111.299 66.8255 111.211 66.6328C111.122 66.4349 110.984 66.2812 110.797 66.1719C110.615 66.0625 110.378 66.0078 110.086 66.0078C109.836 66.0078 109.62 66.0521 109.438 66.1406C109.255 66.224 109.115 66.3464 109.016 66.5078C108.917 66.6641 108.867 66.849 108.867 67.0625H106.617C106.617 66.7031 106.701 66.362 106.867 66.0391C107.034 65.7161 107.276 65.4323 107.594 65.1875C107.911 64.9375 108.289 64.7422 108.727 64.6016C109.169 64.4609 109.664 64.3906 110.211 64.3906C110.867 64.3906 111.451 64.5 111.961 64.7188C112.471 64.9375 112.872 65.2656 113.164 65.7031C113.461 66.1406 113.609 66.6875 113.609 67.3438V70.9609C113.609 71.4245 113.638 71.8047 113.695 72.1016C113.753 72.3932 113.836 72.6484 113.945 72.8672V73H111.672C111.562 72.7708 111.479 72.4844 111.422 72.1406C111.37 71.7917 111.344 71.4427 111.344 71.0938ZM111.641 67.8516L111.656 69.125H110.398C110.102 69.125 109.844 69.1589 109.625 69.2266C109.406 69.2943 109.227 69.3906 109.086 69.5156C108.945 69.6354 108.841 69.776 108.773 69.9375C108.711 70.099 108.68 70.276 108.68 70.4688C108.68 70.6615 108.724 70.8359 108.812 70.9922C108.901 71.1432 109.029 71.263 109.195 71.3516C109.362 71.4349 109.557 71.4766 109.781 71.4766C110.12 71.4766 110.414 71.4089 110.664 71.2734C110.914 71.138 111.107 70.9714 111.242 70.7734C111.383 70.5755 111.456 70.388 111.461 70.2109L112.055 71.1641C111.971 71.3776 111.857 71.599 111.711 71.8281C111.57 72.0573 111.391 72.2734 111.172 72.4766C110.953 72.6745 110.69 72.8385 110.383 72.9688C110.076 73.0938 109.711 73.1562 109.289 73.1562C108.753 73.1562 108.266 73.0495 107.828 72.8359C107.396 72.6172 107.052 72.3177 106.797 71.9375C106.547 71.5521 106.422 71.1146 106.422 70.625C106.422 70.1823 106.505 69.7891 106.672 69.4453C106.839 69.1016 107.083 68.8125 107.406 68.5781C107.734 68.3385 108.143 68.1589 108.633 68.0391C109.122 67.9141 109.69 67.8516 110.336 67.8516H111.641ZM117.539 61V73H115.289V61H117.539ZM117.219 68.4766H116.602C116.607 67.888 116.685 67.3464 116.836 66.8516C116.987 66.3516 117.203 65.9193 117.484 65.5547C117.766 65.1849 118.102 64.8984 118.492 64.6953C118.888 64.4922 119.326 64.3906 119.805 64.3906C120.221 64.3906 120.599 64.4505 120.938 64.5703C121.281 64.6849 121.576 64.8724 121.82 65.1328C122.07 65.388 122.263 65.724 122.398 66.1406C122.534 66.5573 122.602 67.0625 122.602 67.6562V73H120.336V67.6406C120.336 67.2656 120.281 66.9714 120.172 66.7578C120.068 66.5391 119.914 66.3854 119.711 66.2969C119.513 66.2031 119.268 66.1562 118.977 66.1562C118.654 66.1562 118.378 66.2161 118.148 66.3359C117.924 66.4557 117.745 66.6224 117.609 66.8359C117.474 67.0443 117.375 67.2891 117.312 67.5703C117.25 67.8516 117.219 68.1536 117.219 68.4766ZM128.203 73.1562C127.547 73.1562 126.958 73.0521 126.438 72.8438C125.917 72.6302 125.474 72.3359 125.109 71.9609C124.75 71.5859 124.474 71.151 124.281 70.6562C124.089 70.1562 123.992 69.625 123.992 69.0625V68.75C123.992 68.1094 124.083 67.5234 124.266 66.9922C124.448 66.4609 124.708 66 125.047 65.6094C125.391 65.2188 125.807 64.9193 126.297 64.7109C126.786 64.4974 127.339 64.3906 127.953 64.3906C128.552 64.3906 129.083 64.4896 129.547 64.6875C130.01 64.8854 130.398 65.1667 130.711 65.5312C131.029 65.8958 131.268 66.3333 131.43 66.8438C131.591 67.349 131.672 67.9115 131.672 68.5312V69.4688H124.953V67.9688H129.461V67.7969C129.461 67.4844 129.404 67.2057 129.289 66.9609C129.18 66.7109 129.013 66.513 128.789 66.3672C128.565 66.2214 128.279 66.1484 127.93 66.1484C127.633 66.1484 127.378 66.2135 127.164 66.3438C126.951 66.474 126.776 66.6562 126.641 66.8906C126.51 67.125 126.411 67.401 126.344 67.7188C126.281 68.0312 126.25 68.375 126.25 68.75V69.0625C126.25 69.401 126.297 69.7135 126.391 70C126.49 70.2865 126.628 70.5339 126.805 70.7422C126.987 70.9505 127.206 71.112 127.461 71.2266C127.721 71.3411 128.016 71.3984 128.344 71.3984C128.75 71.3984 129.128 71.3203 129.477 71.1641C129.831 71.0026 130.135 70.7604 130.391 70.4375L131.484 71.625C131.307 71.8802 131.065 72.125 130.758 72.3594C130.456 72.5938 130.091 72.7865 129.664 72.9375C129.237 73.0833 128.75 73.1562 128.203 73.1562ZM137.945 71.1562V61H140.211V73H138.172L137.945 71.1562ZM132.602 68.875V68.7109C132.602 68.0651 132.674 67.4792 132.82 66.9531C132.966 66.4219 133.18 65.9661 133.461 65.5859C133.742 65.2057 134.089 64.9115 134.5 64.7031C134.911 64.4948 135.38 64.3906 135.906 64.3906C136.401 64.3906 136.833 64.4948 137.203 64.7031C137.578 64.9115 137.896 65.2083 138.156 65.5938C138.422 65.974 138.635 66.4245 138.797 66.9453C138.958 67.4609 139.076 68.026 139.148 68.6406V69C139.076 69.5885 138.958 70.1354 138.797 70.6406C138.635 71.1458 138.422 71.5885 138.156 71.9688C137.896 72.3438 137.578 72.6354 137.203 72.8438C136.828 73.0521 136.391 73.1562 135.891 73.1562C135.365 73.1562 134.896 73.0495 134.484 72.8359C134.078 72.6224 133.734 72.3229 133.453 71.9375C133.177 71.5521 132.966 71.099 132.82 70.5781C132.674 70.0573 132.602 69.4896 132.602 68.875ZM134.852 68.7109V68.875C134.852 69.224 134.878 69.5495 134.93 69.8516C134.987 70.1536 135.078 70.4219 135.203 70.6562C135.333 70.8854 135.5 71.0651 135.703 71.1953C135.911 71.3203 136.164 71.3828 136.461 71.3828C136.846 71.3828 137.164 71.2969 137.414 71.125C137.664 70.9479 137.854 70.7057 137.984 70.3984C138.12 70.0911 138.198 69.737 138.219 69.3359V68.3125C138.203 67.9844 138.156 67.6901 138.078 67.4297C138.005 67.1641 137.896 66.9375 137.75 66.75C137.609 66.5625 137.432 66.4167 137.219 66.3125C137.01 66.2083 136.763 66.1562 136.477 66.1562C136.185 66.1562 135.935 66.224 135.727 66.3594C135.518 66.4896 135.349 66.6693 135.219 66.8984C135.094 67.1276 135 67.3984 134.938 67.7109C134.88 68.0182 134.852 68.3516 134.852 68.7109ZM144.344 64.5469V73H142.086V64.5469H144.344ZM141.945 62.3438C141.945 62.0156 142.06 61.7448 142.289 61.5312C142.518 61.3177 142.826 61.2109 143.211 61.2109C143.591 61.2109 143.896 61.3177 144.125 61.5312C144.359 61.7448 144.477 62.0156 144.477 62.3438C144.477 62.6719 144.359 62.9427 144.125 63.1562C143.896 63.3698 143.591 63.4766 143.211 63.4766C142.826 63.4766 142.518 63.3698 142.289 63.1562C142.06 62.9427 141.945 62.6719 141.945 62.3438ZM152.391 66.3516V73H150.141V64.5469H152.25L152.391 66.3516ZM152.062 68.4766H151.453C151.453 67.8516 151.534 67.2891 151.695 66.7891C151.857 66.2839 152.083 65.8542 152.375 65.5C152.667 65.1406 153.013 64.8672 153.414 64.6797C153.82 64.487 154.273 64.3906 154.773 64.3906C155.169 64.3906 155.531 64.4479 155.859 64.5625C156.188 64.6771 156.469 64.8594 156.703 65.1094C156.943 65.3594 157.125 65.6901 157.25 66.1016C157.38 66.513 157.445 67.0156 157.445 67.6094V73H155.18V67.6016C155.18 67.2266 155.128 66.9349 155.023 66.7266C154.919 66.5182 154.766 66.3724 154.562 66.2891C154.365 66.2005 154.12 66.1562 153.828 66.1562C153.526 66.1562 153.263 66.2161 153.039 66.3359C152.82 66.4557 152.638 66.6224 152.492 66.8359C152.352 67.0443 152.245 67.2891 152.172 67.5703C152.099 67.8516 152.062 68.1536 152.062 68.4766ZM161.531 64.5469V73H159.273V64.5469H161.531ZM159.133 62.3438C159.133 62.0156 159.247 61.7448 159.477 61.5312C159.706 61.3177 160.013 61.2109 160.398 61.2109C160.779 61.2109 161.083 61.3177 161.312 61.5312C161.547 61.7448 161.664 62.0156 161.664 62.3438C161.664 62.6719 161.547 62.9427 161.312 63.1562C161.083 63.3698 160.779 63.4766 160.398 63.4766C160.013 63.4766 159.706 63.3698 159.477 63.1562C159.247 62.9427 159.133 62.6719 159.133 62.3438ZM167.953 71.0938V67.3281C167.953 67.0573 167.909 66.8255 167.82 66.6328C167.732 66.4349 167.594 66.2812 167.406 66.1719C167.224 66.0625 166.987 66.0078 166.695 66.0078C166.445 66.0078 166.229 66.0521 166.047 66.1406C165.865 66.224 165.724 66.3464 165.625 66.5078C165.526 66.6641 165.477 66.849 165.477 67.0625H163.227C163.227 66.7031 163.31 66.362 163.477 66.0391C163.643 65.7161 163.885 65.4323 164.203 65.1875C164.521 64.9375 164.898 64.7422 165.336 64.6016C165.779 64.4609 166.273 64.3906 166.82 64.3906C167.477 64.3906 168.06 64.5 168.57 64.7188C169.081 64.9375 169.482 65.2656 169.773 65.7031C170.07 66.1406 170.219 66.6875 170.219 67.3438V70.9609C170.219 71.4245 170.247 71.8047 170.305 72.1016C170.362 72.3932 170.445 72.6484 170.555 72.8672V73H168.281C168.172 72.7708 168.089 72.4844 168.031 72.1406C167.979 71.7917 167.953 71.4427 167.953 71.0938ZM168.25 67.8516L168.266 69.125H167.008C166.711 69.125 166.453 69.1589 166.234 69.2266C166.016 69.2943 165.836 69.3906 165.695 69.5156C165.555 69.6354 165.451 69.776 165.383 69.9375C165.32 70.099 165.289 70.276 165.289 70.4688C165.289 70.6615 165.333 70.8359 165.422 70.9922C165.51 71.1432 165.638 71.263 165.805 71.3516C165.971 71.4349 166.167 71.4766 166.391 71.4766C166.729 71.4766 167.023 71.4089 167.273 71.2734C167.523 71.138 167.716 70.9714 167.852 70.7734C167.992 70.5755 168.065 70.388 168.07 70.2109L168.664 71.1641C168.581 71.3776 168.466 71.599 168.32 71.8281C168.18 72.0573 168 72.2734 167.781 72.4766C167.562 72.6745 167.299 72.8385 166.992 72.9688C166.685 73.0938 166.32 73.1562 165.898 73.1562C165.362 73.1562 164.875 73.0495 164.438 72.8359C164.005 72.6172 163.661 72.3177 163.406 71.9375C163.156 71.5521 163.031 71.1146 163.031 70.625C163.031 70.1823 163.115 69.7891 163.281 69.4453C163.448 69.1016 163.693 68.8125 164.016 68.5781C164.344 68.3385 164.753 68.1589 165.242 68.0391C165.732 67.9141 166.299 67.8516 166.945 67.8516H168.25Z" fill="white"/>
<path d="M94.9219 19.7109L85.6406 48H78.1641L90.8438 13.875H95.6016L94.9219 19.7109ZM102.633 48L93.3281 19.7109L92.5781 13.875H97.3828L110.133 48H102.633ZM102.211 35.2969V40.8047H84.1875V35.2969H102.211ZM126.586 35.8359H117.891V30.3516H126.586C127.93 30.3516 129.023 30.1328 129.867 29.6953C130.711 29.2422 131.328 28.6172 131.719 27.8203C132.109 27.0234 132.305 26.125 132.305 25.125C132.305 24.1094 132.109 23.1641 131.719 22.2891C131.328 21.4141 130.711 20.7109 129.867 20.1797C129.023 19.6484 127.93 19.3828 126.586 19.3828H120.328V48H113.297V13.875H126.586C129.258 13.875 131.547 14.3594 133.453 15.3281C135.375 16.2812 136.844 17.6016 137.859 19.2891C138.875 20.9766 139.383 22.9062 139.383 25.0781C139.383 27.2812 138.875 29.1875 137.859 30.7969C136.844 32.4062 135.375 33.6484 133.453 34.5234C131.547 35.3984 129.258 35.8359 126.586 35.8359ZM157.523 35.8359H148.828V30.3516H157.523C158.867 30.3516 159.961 30.1328 160.805 29.6953C161.648 29.2422 162.266 28.6172 162.656 27.8203C163.047 27.0234 163.242 26.125 163.242 25.125C163.242 24.1094 163.047 23.1641 162.656 22.2891C162.266 21.4141 161.648 20.7109 160.805 20.1797C159.961 19.6484 158.867 19.3828 157.523 19.3828H151.266V48H144.234V13.875H157.523C160.195 13.875 162.484 14.3594 164.391 15.3281C166.312 16.2812 167.781 17.6016 168.797 19.2891C169.812 20.9766 170.32 22.9062 170.32 25.0781C170.32 27.2812 169.812 29.1875 168.797 30.7969C167.781 32.4062 166.312 33.6484 164.391 34.5234C162.484 35.3984 160.195 35.8359 157.523 35.8359Z" fill="white"/>
<g filter="url(#filter0_b_13_1379)">
<path d="M30.3584 68.2731C14.697 68.2342 2.00966 64.3525 2.02147 59.6013C2.03329 54.8487 14.7397 51.0316 30.4012 51.0705C46.0627 51.1095 58.7475 54.9912 58.7357 59.7423C58.7239 64.4935 46.0199 68.3121 30.3584 68.2731Z" fill="white" fill-opacity="0.09"/>
<path d="M30.3597 67.7731C22.564 67.7537 15.528 66.7774 10.4588 65.2262C7.92105 64.4496 5.9045 63.5375 4.53413 62.5496C3.15172 61.553 2.51911 60.5505 2.52147 59.6025C2.52383 58.6542 3.16147 57.6546 4.54878 56.6649C5.92403 55.6838 7.94508 54.7818 10.4866 54.0179C15.5635 52.4921 22.6042 51.5511 30.4 51.5705C38.1957 51.5899 45.231 52.5663 50.2996 54.1175C52.837 54.894 54.8533 55.8062 56.2234 56.794C57.6056 57.7906 58.2381 58.7931 58.2357 59.7411C58.2333 60.689 57.5959 61.6885 56.2088 62.6781C54.8337 63.6591 52.813 64.5613 50.2717 65.3252C45.1955 66.8511 38.1554 67.7925 30.3597 67.7731Z" stroke="white" stroke-opacity="0.25"/>
</g>
<path d="M11.3438 14.5H19.2812L30.9688 47.9062L42.6562 14.5H50.5938L34.1562 60H27.7812L11.3438 14.5ZM7.0625 14.5H14.9688L16.4062 47.0625V60H7.0625V14.5ZM46.9688 14.5H54.9062V60H45.5312V47.0625L46.9688 14.5Z" fill="white"/>
<defs>
<filter id="filter0_b_13_1379" x="-21.9785" y="27.0702" width="104.714" height="65.2032" filterUnits="userSpaceOnUse" color-interpolation-filters="sRGB">
<feFlood flood-opacity="0" result="BackgroundImageFix"/>
<feGaussianBlur in="BackgroundImageFix" stdDeviation="12"/>
<feComposite in2="SourceAlpha" operator="in" result="effect1_backgroundBlur_13_1379"/>
<feBlend mode="normal" in="SourceGraphic" in2="effect1_backgroundBlur_13_1379" result="shape"/>
</filter>
</defs>
</svg>
